<svg xmlns="http://www.w3.org/2000/svg" width="55" viewBox="0 0 16 30">
  <path fill="#fff" fill-opacity=".102" fill-rule="evenodd" d="M.02 5.902C.02 3.738 1.836-.023 6.004 0c3.695-.023 6.02 2.863 5.984 5.871-.023 2.684-1.968 5.793-5.984 5.805C1.918 11.687.02 8.136.02 5.902ZM7.28 3.75s.793.09 1.188 1.09c.418-.27.66-.41 1.039-.633.203-.117.445-.262.777-.457-.262-.898-1.863-2.504-4.12-2.516-2.267 0-3.821 1.575-4.188 2.516.246.145.523.313.82.488.324.2.668.407 1 .602.445-.988 1.183-1.09 1.183-1.09v6.523s.532.2 1.153.2c.586 0 1.148-.2 1.148-.2Zm2.711 11.574c-4.164-.023-5.98 3.739-5.98 5.906 0 2.235 1.894 5.782 5.98 5.77 4.02-.012 5.965-3.121 5.988-5.805.036-3.008-2.289-5.894-5.988-5.87Zm2.469 4.836c-.395-.996-1.188-1.086-1.188-1.086v6.524s-.562.199-1.152.199c-.621 0-1.148-.2-1.148-.2v-6.523s-.739.102-1.188 1.086c-.332-.191-.672-.398-1-.594-.293-.18-.57-.347-.816-.492.367-.941 1.918-2.515 4.187-2.515 2.254.011 3.856 1.617 4.121 2.515-.261.153-.52.309-.78.457-.352.203-.7.41-1.036.63Zm0 0"/>
</svg>
