<svg xmlns="http://www.w3.org/2000/svg" fill="none" viewBox="0 0 502 483">
  <path fill="#fff" fill-opacity="0.1" fill-rule="evenodd" d="M274.53.0005248C258.149-.0899787 251 15.0693 251 23.8029c0 9.0051 7.466 23.3047 23.53 23.2594 15.793-.0452 23.441-12.58 23.531-23.3951.136-12.1275-9.005-23.7571787-23.531-23.6666752ZM284.214 19.504c-1.538-4.0274-4.661-4.3894-4.661-4.3894v26.2913s-2.217.8145-4.525.8145c-2.443 0-4.525-.8145-4.525-.8145V15.1146s-2.896.4073-4.661 4.3894c-1.307-.7841-2.651-1.6182-3.928-2.4104-1.155-.7165-2.255-1.3988-3.222-1.979 1.448-3.8011 7.557-10.13639 16.472-10.13639 8.869.04526 15.159 6.51629 16.2 10.13639-1.305.7959-2.263 1.3678-3.067 1.8477-1.482.8844-2.44 1.4564-4.083 2.5417ZM0 23.803C0 15.0694 7.14977-.0899319 23.5309.00057152 38.0567-.0899319 47.1975 11.5398 47.0618 23.6672c-.0905 10.8152-7.7381 23.3499-23.5309 23.3952C7.46653 47.1076 0 32.8081 0 23.803Zm28.5538-8.6884s3.1224.3621 4.661 4.3895c1.6426-1.0854 2.6008-1.6573 4.0823-2.5417.804-.4799 1.7621-1.0518 3.0674-1.8478-1.0408-3.6201-7.3307-10.09109-16.2001-10.13634-8.9146 0-15.02355 6.33524-16.47161 10.13634.96713.5803 2.06695 1.2627 3.22191 1.9792 1.2768.7922 2.6211 1.6262 3.9279 2.4103 1.7648-3.9822 4.6609-4.3895 4.6609-4.3895v26.2913s2.0816.8145 4.5252.8145c2.3078 0 4.5251-.8145 4.5251-.8145V15.1146ZM0 272.842c0-8.734 7.14977-23.893 23.5309-23.803 14.5258-.09 23.6666 11.539 23.5309 23.667-.0905 10.815-7.7381 23.35-23.5309 23.395C7.46653 296.146 0 281.847 0 272.842Zm28.5538-8.689s3.1224.362 4.661 4.39c1.6427-1.086 2.6008-1.658 4.0824-2.542.8039-.48 1.7621-1.052 3.0673-1.848-1.0408-3.62-7.3307-10.091-16.2001-10.136-8.9146 0-15.02355 6.335-16.47161 10.136.96317.578 2.05794 1.257 3.20771 1.971l.0102.006.0041.003c1.2768.792 2.621 1.626 3.9278 2.41 1.7648-3.982 4.6609-4.39 4.6609-4.39v26.292s2.0816.814 4.5252.814c2.3078 0 4.5251-.814 4.5251-.814v-26.292ZM251 272.842c0-8.734 7.149-23.893 23.53-23.803 14.526-.09 23.667 11.539 23.531 23.667-.09 10.815-7.738 23.35-23.531 23.395-16.064.045-23.53-14.254-23.53-23.259Zm28.553-8.689s3.123.362 4.661 4.39c1.642-1.085 2.6-1.657 4.079-2.54h.001l.001-.001.002-.001c.804-.48 1.762-1.052 3.067-1.848-1.041-3.62-7.331-10.091-16.2-10.136-8.915 0-15.024 6.335-16.472 10.136.967.581 2.067 1.263 3.222 1.979l.002.002.007.004c1.274.79 2.615 1.622 3.919 2.405 1.765-3.982 4.661-4.39 4.661-4.39v26.292s2.082.814 4.525.814c2.308 0 4.525-.814 4.525-.814v-26.292ZM23.5309 124.52C7.14977 124.429 0 139.589 0 148.322c0 9.005 7.46653 23.305 23.5309 23.26 15.7928-.046 23.4404-12.58 23.5309-23.395.1357-12.128-9.0051-23.758-23.5309-23.667Zm9.6839 19.503c-1.5386-4.027-4.661-4.389-4.661-4.389v26.291s-2.2173.815-4.5251.815c-2.4436 0-4.5252-.815-4.5252-.815v-26.291s-2.8961.407-4.6609 4.389c-1.3064-.783-2.6501-1.617-3.9266-2.409l-.0012-.001c-1.15502-.716-2.25486-1.399-3.22201-1.979 1.44806-3.801 7.55701-10.136 16.47161-10.136 8.8694.045 15.1593 6.516 16.2001 10.136-1.304.795-2.2616 1.367-3.0651 1.846l-.0023.002c-1.4816.884-2.4397 1.456-4.0823 2.541ZM0 397.361c0-8.734 7.14977-23.893 23.5309-23.802 14.5258-.091 23.6666 11.539 23.5309 23.666-.0905 10.815-7.7381 23.35-23.5309 23.395C7.46653 420.666 0 406.366 0 397.361Zm28.5538-8.688s3.1224.362 4.661 4.389c1.6426-1.085 2.6007-1.657 4.0821-2.541l.0009-.001h.0004l.0094-.006c.8018-.478 1.7573-1.049 3.0569-1.841-1.0408-3.62-7.3307-10.091-16.2001-10.137-8.9146 0-15.02355 6.335-16.47161 10.137.96317.578 2.05794 1.257 3.20771 1.97l.0102.006.0041.003.0011.001.0077.004c1.2742.791 2.6152 1.623 3.919 2.405 1.7648-3.982 4.6609-4.389 4.6609-4.389v26.291s2.0816.814 4.5252.814c2.3078 0 4.5251-.814 4.5251-.814v-26.291ZM274.53 124.52c-16.381-.091-23.53 15.069-23.53 23.802 0 9.005 7.466 23.305 23.53 23.26 15.793-.046 23.441-12.58 23.531-23.395.136-12.128-9.005-23.758-23.531-23.667Zm9.684 19.503c-1.538-4.027-4.661-4.389-4.661-4.389v26.291s-2.217.815-4.525.815c-2.443 0-4.525-.815-4.525-.815v-26.291s-2.896.407-4.661 4.389c-1.307-.784-2.651-1.618-3.928-2.41-1.155-.717-2.255-1.399-3.222-1.979 1.448-3.801 7.557-10.136 16.472-10.136 8.869.045 15.159 6.516 16.2 10.136-1.305.796-2.263 1.368-3.067 1.848-1.482.884-2.44 1.456-4.083 2.541ZM251 397.361c0-8.734 7.149-23.893 23.53-23.802 14.526-.091 23.667 11.539 23.531 23.666-.09 10.815-7.738 23.35-23.531 23.395-16.064.046-23.53-14.254-23.53-23.259Zm28.553-8.688s3.123.362 4.661 4.389c1.643-1.085 2.601-1.657 4.083-2.542l.005-.003c.803-.479 1.76-1.05 3.062-1.844-1.041-3.62-7.331-10.091-16.2-10.137-8.915 0-15.024 6.335-16.472 10.137.967.58 2.067 1.262 3.222 1.979 1.277.792 2.621 1.626 3.928 2.41 1.765-3.982 4.661-4.389 4.661-4.389v26.291s2.082.814 4.525.814c2.308 0 4.525-.814 4.525-.814v-26.291ZM149.031.0005248C132.65-.0899787 125.5 15.0693 125.5 23.8029c0 9.0051 7.466 23.3047 23.531 23.2594 15.793-.0452 23.44-12.58 23.531-23.3951.135-12.1275-9.006-23.7571787-23.531-23.6666752ZM158.715 19.504c-1.539-4.0274-4.661-4.3894-4.661-4.3894v26.2913s-2.218.8145-4.526.8145c-2.443 0-4.525-.8145-4.525-.8145V15.1146s-2.896.4073-4.661 4.3894c-1.306-.7838-2.65-1.6175-3.926-2.4095l-.001-.0007c-1.155-.7166-2.255-1.3989-3.222-1.9792 1.448-3.8011 7.557-10.13639 16.471-10.13639 8.87.04526 15.16 6.51629 16.2 10.13639-1.305.7959-2.263 1.3679-3.067 1.8478-1.482.8843-2.44 1.4563-4.082 2.5416ZM125.5 272.842c0-8.734 7.15-23.893 23.531-23.803 14.525-.09 23.666 11.539 23.531 23.667-.091 10.815-7.738 23.35-23.531 23.395-16.065.045-23.531-14.254-23.531-23.259Zm28.554-8.689s3.122.362 4.661 4.39c1.642-1.086 2.6-1.658 4.082-2.542h.001c.803-.48 1.761-1.052 3.066-1.848-1.04-3.62-7.33-10.091-16.2-10.136-8.914 0-15.023 6.335-16.471 10.136.967.581 2.067 1.263 3.222 1.98l.002.001.017.011.003.002h.001l.006.004.001.001.007.004.001.001c1.266.785 2.596 1.61 3.889 2.386 1.765-3.982 4.661-4.39 4.661-4.39v26.292s2.082.814 4.525.814c2.308 0 4.526-.814 4.526-.814v-26.292ZM400.03.0005248C383.649-.0899787 376.499 15.0693 376.499 23.8029c0 9.0051 7.467 23.3047 23.531 23.2594 15.793-.0452 23.441-12.58 23.531-23.3951.136-12.1275-9.005-23.7571787-23.531-23.6666752ZM409.714 19.504c-1.538-4.0274-4.661-4.3894-4.661-4.3894v26.2913s-2.217.8145-4.525.8145c-2.444 0-4.525-.8145-4.525-.8145V15.1146s-2.896.4073-4.661 4.3894c-1.307-.784-2.651-1.6179-3.928-2.41l-.001-.0012c-1.155-.7162-2.254-1.3982-3.221-1.9782 1.448-3.8011 7.557-10.13639 16.472-10.13639 8.869.04526 15.159 6.51629 16.2 10.13639-1.305.796-2.264 1.3679-3.068 1.8479-1.481.8843-2.439 1.4562-4.082 2.5415Zm-33.215 253.338c0-8.734 7.15-23.893 23.531-23.803 14.526-.09 23.667 11.539 23.531 23.667-.09 10.815-7.738 23.35-23.531 23.395-16.064.045-23.531-14.254-23.531-23.259Zm28.554-8.689s3.123.362 4.661 4.39c1.642-1.085 2.6-1.657 4.081-2.541l.001-.001c.804-.48 1.763-1.052 3.068-1.848-1.041-3.62-7.331-10.091-16.2-10.136-8.915 0-15.024 6.335-16.472 10.136.967.581 2.067 1.263 3.223 1.98 1.276.792 2.62 1.626 3.927 2.41 1.765-3.982 4.661-4.39 4.661-4.39v26.292s2.081.814 4.525.814c2.308 0 4.525-.814 4.525-.814v-26.292ZM149.031 124.52c-16.381-.091-23.531 15.069-23.531 23.802 0 9.005 7.466 23.305 23.531 23.26 15.793-.046 23.44-12.58 23.531-23.395.135-12.128-9.006-23.758-23.531-23.667Zm9.684 19.503c-1.539-4.027-4.661-4.389-4.661-4.389v26.291s-2.218.815-4.526.815c-2.443 0-4.525-.815-4.525-.815v-26.291s-2.896.407-4.661 4.389c-1.306-.784-2.651-1.618-3.927-2.41-1.155-.716-2.255-1.399-3.222-1.979 1.448-3.801 7.557-10.136 16.471-10.136 8.87.045 15.16 6.516 16.2 10.136-1.304.795-2.261 1.367-3.064 1.846l-.003.002c-1.482.884-2.44 1.456-4.082 2.541ZM125.5 397.361c0-8.734 7.15-23.893 23.531-23.802 14.525-.091 23.666 11.539 23.531 23.666-.091 10.815-7.738 23.35-23.531 23.395-16.065.046-23.531-14.254-23.531-23.259Zm28.554-8.688s3.122.362 4.661 4.389c1.642-1.085 2.6-1.657 4.082-2.541.804-.48 1.762-1.052 3.067-1.848-1.04-3.62-7.33-10.091-16.2-10.137-8.914 0-15.023 6.335-16.471 10.137.967.58 2.067 1.262 3.222 1.979 1.276.792 2.621 1.626 3.927 2.41 1.765-3.982 4.661-4.389 4.661-4.389v26.291s2.082.814 4.525.814c2.308 0 4.526-.814 4.526-.814v-26.291ZM400.03 124.52c-16.381-.091-23.531 15.069-23.531 23.802 0 9.005 7.467 23.305 23.531 23.26 15.793-.046 23.441-12.58 23.531-23.395.136-12.128-9.005-23.758-23.531-23.667Zm9.684 19.503c-1.538-4.027-4.661-4.389-4.661-4.389v26.291s-2.217.815-4.525.815c-2.444 0-4.525-.815-4.525-.815v-26.291s-2.896.407-4.661 4.389c-1.305-.782-2.647-1.615-3.922-2.406l-.003-.002-.001-.001-.001-.001c-1.156-.716-2.256-1.399-3.223-1.979 1.448-3.801 7.557-10.136 16.472-10.136 8.869.045 15.159 6.516 16.2 10.136-1.305.796-2.264 1.368-3.068 1.848-1.481.884-2.439 1.456-4.082 2.541Zm-33.215 253.338c0-8.734 7.15-23.893 23.531-23.802 14.526-.091 23.667 11.539 23.531 23.666-.09 10.815-7.738 23.35-23.531 23.395-16.064.046-23.531-14.254-23.531-23.259Zm28.554-8.688s3.123.362 4.661 4.389c1.643-1.085 2.601-1.657 4.082-2.541.804-.48 1.762-1.052 3.068-1.848-1.041-3.62-7.331-10.091-16.2-10.137-8.915 0-15.024 6.335-16.472 10.137.967.58 2.067 1.262 3.223 1.979 1.276.792 2.62 1.626 3.927 2.41 1.765-3.982 4.661-4.389 4.661-4.389v26.291s2.081.814 4.525.814c2.308 0 4.525-.814 4.525-.814v-26.291ZM39.2184 61.77c-16.3812-.0905-23.5309 15.0688-23.5309 23.8024 0 9.0051 7.4665 23.3046 23.5309 23.2596 15.7928-.046 23.4404-12.5802 23.5309-23.3954.1357-12.1275-9.0051-23.7571-23.5309-23.6666Zm9.6838 19.5034c-1.5385-4.0274-4.6609-4.3894-4.6609-4.3894v26.291s-2.2173.815-4.5252.815c-2.4436 0-4.5251-.815-4.5251-.815V76.884s-2.8961.4073-4.661 4.3894c-1.3068-.7841-2.6511-1.6181-3.9279-2.4102l-.0015-.001c-1.1544-.7162-2.2537-1.3982-3.2203-1.9782 1.448-3.8011 7.557-10.1364 16.4716-10.1364 8.8693.0453 15.1593 6.5163 16.2001 10.1364-1.3053.796-2.2635 1.3679-3.0675 1.8478-1.4815.8844-2.4396 1.4563-4.0823 2.5416ZM15.6875 334.611c0-8.734 7.1497-23.893 23.5309-23.802 14.5258-.091 23.6666 11.539 23.5309 23.666-.0905 10.815-7.7381 23.35-23.5309 23.395-16.0644.046-23.5309-14.254-23.5309-23.259Zm28.5538-8.688s3.1224.362 4.6609 4.389c1.6426-1.085 2.6008-1.657 4.0822-2.541.804-.48 1.7622-1.052 3.0676-1.848-1.0408-3.62-7.3308-10.091-16.2001-10.137-8.9146 0-15.0236 6.336-16.4716 10.137.9671.58 2.0669 1.262 3.2219 1.979l.001.001.0066.004.0088.005h.0005l.0023.002c1.2711.788 2.6084 1.618 3.9086 2.398 1.7649-3.982 4.661-4.389 4.661-4.389v26.291s2.0815.815 4.5251.815c2.3079 0 4.5252-.815 4.5252-.815v-26.291ZM290.218 61.77c-16.381-.0905-23.531 15.0688-23.531 23.8024 0 9.0051 7.467 23.3046 23.531 23.2596 15.793-.046 23.44-12.5802 23.531-23.3954.136-12.1275-9.005-23.7571-23.531-23.6666Zm9.684 19.5034c-1.539-4.0274-4.661-4.3894-4.661-4.3894v26.291s-2.217.815-4.525.815c-2.444 0-4.525-.815-4.525-.815V76.884s-2.897.4073-4.661 4.3894c-1.307-.784-2.651-1.6179-3.928-2.41l-.002-.0011c-1.154-.7162-2.253-1.3982-3.22-1.9783 1.448-3.8011 7.557-10.1364 16.471-10.1364 8.87.0453 15.16 6.5163 16.201 10.1364-1.306.796-2.264 1.368-3.068 1.8479-1.481.8843-2.44 1.4562-4.082 2.5415ZM266.687 334.611c0-8.734 7.15-23.893 23.531-23.802 14.526-.091 23.667 11.539 23.531 23.666-.091 10.815-7.738 23.35-23.531 23.395-16.064.046-23.531-14.254-23.531-23.259Zm28.554-8.688s3.122.362 4.661 4.389c1.642-1.085 2.601-1.657 4.082-2.541.804-.48 1.762-1.052 3.068-1.848-1.041-3.62-7.331-10.091-16.201-10.137-8.914 0-15.023 6.336-16.471 10.137.967.58 2.067 1.263 3.222 1.979 1.277.792 2.621 1.626 3.928 2.41 1.764-3.982 4.661-4.389 4.661-4.389v26.291s2.081.815 4.525.815c2.308 0 4.525-.815 4.525-.815v-26.291ZM39.2184 186.289c-16.3812-.09-23.5309 15.069-23.5309 23.803 0 9.005 7.4665 23.304 23.5309 23.259 15.7928-.045 23.4404-12.58 23.5309-23.395.1357-12.127-9.0051-23.757-23.5309-23.667Zm9.6838 19.504c-1.5385-4.028-4.6609-4.39-4.6609-4.39v26.292s-2.2173.814-4.5252.814c-2.4436 0-4.5251-.814-4.5251-.814v-26.292s-2.8961.408-4.661 4.39c-1.306-.784-2.6494-1.617-3.9255-2.409l-.0011-.001-.0015-.001h-.0012l-.0028-.002-.0018-.001h-.0003c-1.1527-.715-2.2502-1.396-3.2155-1.976 1.448-3.801 7.557-10.136 16.4716-10.136 8.8693.045 15.1593 6.516 16.2001 10.136-1.3053.796-2.2635 1.368-3.0675 1.848-1.4815.885-2.4396 1.457-4.0823 2.542ZM15.6875 459.13c0-8.733 7.1497-23.892 23.5309-23.802 14.5258-.09 23.6666 11.539 23.5309 23.667-.0905 10.815-7.7381 23.35-23.5309 23.395-16.0644.045-23.5309-14.255-23.5309-23.26Zm28.5538-8.688s3.1224.362 4.6609 4.39c1.6426-1.086 2.6008-1.658 4.0822-2.542.804-.48 1.7622-1.052 3.0676-1.848-1.0408-3.62-7.3308-10.091-16.2001-10.136-8.9146 0-15.0236 6.335-16.4716 10.136.9671.58 2.0669 1.263 3.2219 1.979l.001.001.0066.004.0088.006h.0005l.0023.001c1.2711.789 2.6084 1.618 3.9086 2.399 1.7649-3.983 4.661-4.39 4.661-4.39v26.291s2.0815.815 4.5251.815c2.3079 0 4.5252-.815 4.5252-.815v-26.291ZM290.218 186.289c-16.381-.09-23.531 15.069-23.531 23.803 0 9.005 7.467 23.304 23.531 23.259 15.793-.045 23.44-12.58 23.531-23.395.136-12.127-9.005-23.757-23.531-23.667Zm9.684 19.504c-1.539-4.028-4.661-4.39-4.661-4.39v26.292s-2.217.814-4.525.814c-2.444 0-4.525-.814-4.525-.814v-26.292s-2.897.408-4.661 4.39c-1.307-.784-2.651-1.618-3.928-2.41l-.003-.002c-1.154-.716-2.253-1.398-3.219-1.978 1.448-3.801 7.557-10.136 16.471-10.136 8.87.045 15.16 6.516 16.201 10.136-1.306.796-2.264 1.368-3.068 1.848-1.481.885-2.44 1.457-4.082 2.542ZM266.687 459.13c0-8.733 7.15-23.892 23.531-23.802 14.526-.09 23.667 11.539 23.531 23.667-.091 10.815-7.738 23.35-23.531 23.395-16.064.045-23.531-14.255-23.531-23.26Zm28.554-8.688s3.122.362 4.661 4.39c1.642-1.086 2.601-1.658 4.082-2.542.804-.48 1.762-1.052 3.068-1.848-1.041-3.62-7.331-10.091-16.201-10.136-8.914 0-15.023 6.335-16.471 10.136.967.58 2.067 1.263 3.222 1.98 1.277.792 2.621 1.626 3.928 2.41 1.764-3.983 4.661-4.39 4.661-4.39v26.291s2.081.815 4.525.815c2.308 0 4.525-.815 4.525-.815v-26.291ZM164.718 61.77c-16.381-.0905-23.531 15.0688-23.531 23.8024 0 9.0051 7.467 23.3046 23.531 23.2596 15.793-.046 23.441-12.5802 23.531-23.3954.136-12.1275-9.005-23.7571-23.531-23.6666Zm9.684 19.5034c-1.539-4.0274-4.661-4.3894-4.661-4.3894v26.291s-2.217.815-4.525.815c-2.444 0-4.525-.815-4.525-.815V76.884s-2.896.4073-4.661 4.3894c-1.307-.7839-2.651-1.6177-3.927-2.4097l-.001-.0002v-.0004c-1.155-.7165-2.255-1.3988-3.222-1.9791 1.448-3.8011 7.557-10.1364 16.472-10.1364 8.869.0453 15.159 6.5163 16.2 10.1364-1.306.796-2.264 1.3679-3.068 1.8479v.0002c-1.481.8842-2.44 1.4561-4.082 2.5413ZM141.187 334.611c0-8.734 7.15-23.893 23.531-23.802 14.526-.091 23.667 11.539 23.531 23.666-.09 10.815-7.738 23.35-23.531 23.395-16.064.046-23.531-14.254-23.531-23.259Zm28.554-8.688s3.122.362 4.661 4.389c1.642-1.085 2.6-1.657 4.081-2.541h.001c.804-.48 1.762-1.052 3.068-1.848-1.041-3.62-7.331-10.091-16.2-10.137-8.915 0-15.024 6.336-16.472 10.137.967.58 2.067 1.262 3.222 1.979 1.277.792 2.621 1.626 3.928 2.41 1.765-3.982 4.661-4.389 4.661-4.389v26.291s2.081.815 4.525.815c2.308 0 4.525-.815 4.525-.815v-26.291ZM415.718 61.77c-16.381-.0905-23.531 15.0688-23.531 23.8024 0 9.0051 7.466 23.3046 23.531 23.2596 15.793-.046 23.44-12.5802 23.531-23.3954.135-12.1275-9.005-23.7571-23.531-23.6666Zm9.684 19.5034c-1.539-4.0274-4.661-4.3894-4.661-4.3894v26.291s-2.218.815-4.525.815c-2.444 0-4.526-.815-4.526-.815V76.884s-2.896.4073-4.661 4.3894c-1.306-.784-2.65-1.6179-3.927-2.41l-.002-.0011c-1.154-.7162-2.254-1.3982-3.22-1.9783 1.448-3.8011 7.557-10.1364 16.471-10.1364 8.87.0453 15.16 6.5163 16.2 10.1364-1.305.796-2.263 1.368-3.067 1.8479-1.482.8843-2.44 1.4562-4.082 2.5415ZM392.187 334.611c0-8.734 7.15-23.893 23.531-23.802 14.526-.091 23.666 11.539 23.531 23.666-.091 10.815-7.738 23.35-23.531 23.395-16.065.046-23.531-14.254-23.531-23.259Zm28.554-8.688s3.122.362 4.661 4.389c1.642-1.085 2.6-1.657 4.082-2.541.804-.48 1.762-1.052 3.067-1.848-1.04-3.62-7.33-10.091-16.2-10.137-8.914 0-15.023 6.336-16.471 10.137.967.58 2.067 1.263 3.222 1.979 1.277.792 2.621 1.626 3.927 2.41 1.765-3.982 4.661-4.389 4.661-4.389v26.291s2.082.815 4.526.815c2.307 0 4.525-.815 4.525-.815v-26.291ZM164.718 186.289c-16.381-.09-23.531 15.069-23.531 23.803 0 9.005 7.467 23.304 23.531 23.259 15.793-.045 23.441-12.58 23.531-23.395.136-12.127-9.005-23.757-23.531-23.667Zm9.684 19.504c-1.539-4.028-4.661-4.39-4.661-4.39v26.292s-2.217.814-4.525.814c-2.444 0-4.525-.814-4.525-.814v-26.292s-2.896.408-4.661 4.39c-1.307-.784-2.651-1.618-3.928-2.411-1.155-.716-2.255-1.398-3.222-1.979 1.448-3.801 7.557-10.136 16.472-10.136 8.869.045 15.159 6.516 16.2 10.136-1.303.795-2.261 1.366-3.064 1.846l-.004.002-.001.001-.001.001c-1.48.883-2.438 1.455-4.08 2.54ZM141.187 459.13c0-8.733 7.15-23.892 23.531-23.802 14.526-.09 23.667 11.539 23.531 23.667-.09 10.815-7.738 23.35-23.531 23.395-16.064.045-23.531-14.255-23.531-23.26Zm28.554-8.688s3.122.362 4.661 4.39c1.642-1.086 2.6-1.658 4.081-2.542h.001c.804-.48 1.762-1.052 3.068-1.848-1.041-3.62-7.331-10.091-16.2-10.136-8.915 0-15.024 6.335-16.472 10.136.967.58 2.067 1.263 3.222 1.979 1.277.793 2.621 1.626 3.928 2.411 1.765-3.983 4.661-4.39 4.661-4.39v26.291s2.081.815 4.525.815c2.308 0 4.525-.815 4.525-.815v-26.291Zm245.977-264.153c-16.381-.09-23.531 15.069-23.531 23.803 0 9.005 7.466 23.304 23.531 23.259 15.793-.045 23.44-12.58 23.531-23.395.135-12.127-9.005-23.757-23.531-23.667Zm9.684 19.504c-1.539-4.028-4.661-4.39-4.661-4.39v26.292s-2.218.814-4.525.814c-2.444 0-4.526-.814-4.526-.814v-26.292s-2.896.408-4.661 4.39c-1.306-.784-2.65-1.618-3.927-2.41l-.003-.002c-1.154-.716-2.253-1.398-3.219-1.978 1.448-3.801 7.557-10.136 16.471-10.136 8.87.045 15.16 6.516 16.2 10.136-1.305.796-2.263 1.368-3.067 1.848-1.482.885-2.44 1.457-4.082 2.542ZM392.187 459.13c0-8.733 7.15-23.892 23.531-23.802 14.526-.09 23.666 11.539 23.531 23.667-.091 10.815-7.738 23.35-23.531 23.395-16.065.045-23.531-14.255-23.531-23.26Zm28.554-8.688s3.122.362 4.661 4.39c1.642-1.086 2.6-1.658 4.082-2.542.804-.48 1.762-1.052 3.067-1.848-1.04-3.62-7.33-10.091-16.2-10.136-8.914 0-15.023 6.335-16.471 10.136.967.58 2.067 1.263 3.222 1.98 1.277.792 2.621 1.626 3.927 2.41 1.765-3.983 4.661-4.39 4.661-4.39v26.291s2.082.815 4.526.815c2.307 0 4.525-.815 4.525-.815v-26.291ZM86.2808.0005248C69.8997-.0899787 62.7499 15.0693 62.7499 23.8029c0 9.0051 7.4665 23.3047 23.5309 23.2594 15.7932-.0452 23.4402-12.58 23.5312-23.3951.135-12.1275-9.005-23.7571787-23.5312-23.6666752ZM95.9647 19.504c-1.5386-4.0274-4.661-4.3894-4.661-4.3894v26.2913s-2.2173.8145-4.5251.8145c-2.4436 0-4.5252-.8145-4.5252-.8145V15.1146s-2.8961.4073-4.6609 4.3894c-1.3068-.7841-2.651-1.618-3.9279-2.4102-1.1549-.7166-2.2548-1.3989-3.2219-1.9792 1.448-3.8011 7.557-10.13639 16.4716-10.13639 8.8694.04526 15.1597 6.51629 16.1997 10.13639-1.305.7957-2.263 1.3676-3.066 1.8474l-.001.0004c-1.4816.8844-2.4397 1.4563-4.0823 2.5416ZM62.7499 272.842c0-8.734 7.1498-23.893 23.5309-23.803 14.5262-.09 23.6662 11.539 23.5312 23.667-.091 10.815-7.738 23.35-23.5312 23.395-16.0644.045-23.5309-14.254-23.5309-23.259Zm28.5538-8.689s3.1224.362 4.661 4.39c1.6426-1.086 2.6008-1.658 4.0823-2.542.804-.48 1.762-1.052 3.067-1.848-1.04-3.62-7.3303-10.091-16.1997-10.136-8.9146 0-15.0236 6.335-16.4716 10.136.9671.581 2.067 1.263 3.222 1.98h.0013l.0083.006h.0012l.0061.004.0022.001c1.2711.789 2.6084 1.619 3.9087 2.399 1.7648-3.982 4.6609-4.39 4.6609-4.39v26.292s2.0816.814 4.5252.814c2.3078 0 4.5251-.814 4.5251-.814v-26.292ZM337.28.0005248C320.899-.0899787 313.749 15.0693 313.749 23.8029c0 9.0051 7.467 23.3047 23.531 23.2594 15.793-.0452 23.441-12.58 23.531-23.3951.136-12.1275-9.005-23.7571787-23.531-23.6666752ZM346.964 19.504c-1.538-4.0274-4.661-4.3894-4.661-4.3894v26.2913s-2.217.8145-4.525.8145c-2.443 0-4.525-.8145-4.525-.8145V15.1146s-2.896.4073-4.661 4.3894c-1.307-.784-2.651-1.6179-3.927-2.41l-.002-.0012c-1.155-.7162-2.254-1.3982-3.221-1.9782 1.448-3.8011 7.557-10.13639 16.472-10.13639 8.869.04526 15.159 6.51629 16.2 10.13639-1.305.796-2.264 1.3679-3.068 1.8479-1.481.8843-2.439 1.4562-4.082 2.5415Zm-33.215 253.338c0-8.734 7.15-23.893 23.531-23.803 14.526-.09 23.667 11.539 23.531 23.667-.09 10.815-7.738 23.35-23.531 23.395-16.064.045-23.531-14.254-23.531-23.259Zm28.554-8.689s3.123.362 4.661 4.39c1.642-1.085 2.6-1.657 4.081-2.541l.001-.001h.001c.804-.48 1.762-1.052 3.067-1.848-1.041-3.62-7.331-10.091-16.2-10.136-8.915 0-15.024 6.335-16.472 10.136.967.58 2.066 1.262 3.22 1.978l.003.002c1.276.792 2.62 1.626 3.927 2.41 1.765-3.982 4.661-4.39 4.661-4.39v26.292s2.082.814 4.525.814c2.308 0 4.525-.814 4.525-.814v-26.292ZM86.2808 124.52c-16.3811-.091-23.5309 15.069-23.5309 23.802 0 9.005 7.4665 23.305 23.5309 23.26 15.7932-.046 23.4402-12.58 23.5312-23.395.135-12.128-9.005-23.758-23.5312-23.667Zm9.6839 19.503c-1.5386-4.027-4.661-4.389-4.661-4.389v26.291s-2.2173.815-4.5251.815c-2.4436 0-4.5252-.815-4.5252-.815v-26.291s-2.8961.407-4.6609 4.389c-1.3068-.784-2.651-1.618-3.9278-2.41-1.155-.716-2.2549-1.399-3.222-1.979 1.448-3.801 7.557-10.136 16.4716-10.136 8.8694.045 15.1597 6.516 16.1997 10.136-1.305.796-2.263 1.368-3.067 1.848-1.4817.884-2.4398 1.456-4.0823 2.541ZM62.7499 397.361c0-8.734 7.1498-23.893 23.5309-23.802 14.5262-.091 23.6662 11.539 23.5312 23.666-.091 10.815-7.738 23.35-23.5312 23.395-16.0644.046-23.5309-14.254-23.5309-23.259Zm28.5538-8.688s3.1224.362 4.661 4.389c1.6415-1.085 2.5994-1.656 4.0793-2.54l.001-.001h.002c.804-.48 1.762-1.052 3.067-1.848-1.04-3.62-7.3303-10.091-16.1997-10.137-8.9146 0-15.0236 6.335-16.4716 10.137.9671.58 2.067 1.262 3.222 1.979 1.2768.792 2.621 1.626 3.9278 2.41 1.7648-3.982 4.6609-4.389 4.6609-4.389v26.291s2.0816.814 4.5252.814c2.3078 0 4.5251-.814 4.5251-.814v-26.291ZM337.28 124.52c-16.381-.091-23.531 15.069-23.531 23.802 0 9.005 7.467 23.305 23.531 23.26 15.793-.046 23.441-12.58 23.531-23.395.136-12.128-9.005-23.758-23.531-23.667Zm9.684 19.503c-1.538-4.027-4.661-4.389-4.661-4.389v26.291s-2.217.815-4.525.815c-2.443 0-4.525-.815-4.525-.815v-26.291s-2.896.407-4.661 4.389c-1.305-.782-2.647-1.615-3.922-2.406l-.003-.002-.001-.001-.001-.001c-1.155-.716-2.255-1.399-3.223-1.979 1.448-3.801 7.557-10.136 16.472-10.136 8.869.045 15.159 6.516 16.2 10.136-1.305.796-2.264 1.368-3.068 1.848-1.481.884-2.439 1.456-4.082 2.541Zm-33.215 253.338c0-8.734 7.15-23.893 23.531-23.802 14.526-.091 23.667 11.539 23.531 23.666-.09 10.815-7.738 23.35-23.531 23.395-16.064.046-23.531-14.254-23.531-23.259Zm28.554-8.688s3.123.362 4.661 4.389c1.643-1.085 2.601-1.657 4.082-2.541.804-.48 1.763-1.052 3.068-1.848-1.041-3.62-7.331-10.091-16.2-10.137-8.915 0-15.024 6.335-16.472 10.137.968.58 2.068 1.262 3.223 1.979 1.276.792 2.62 1.626 3.927 2.41 1.765-3.982 4.661-4.389 4.661-4.389v26.291s2.082.814 4.525.814c2.308 0 4.525-.814 4.525-.814v-26.291ZM211.781.0005248C195.399-.0899787 188.25 15.0693 188.25 23.8029c0 9.0051 7.466 23.3047 23.531 23.2594 15.792-.0452 23.44-12.58 23.53-23.3951.136-12.1275-9.005-23.7571787-23.53-23.6666752ZM221.464 19.504c-1.538-4.0274-4.66-4.3894-4.66-4.3894v26.2913s-2.218.8145-4.526.8145c-2.443 0-4.525-.8145-4.525-.8145V15.1146s-2.896.4073-4.661 4.3894c-1.307-.7841-2.651-1.618-3.928-2.4102-1.155-.7166-2.254-1.3989-3.222-1.9792 1.449-3.8011 7.558-10.13639 16.472-10.13639 8.869.04526 15.159 6.51629 16.2 10.13639-1.305.796-2.263 1.3679-3.067 1.8478-1.482.8844-2.44 1.4563-4.083 2.5416ZM188.25 272.842c0-8.734 7.149-23.893 23.531-23.803 14.525-.09 23.666 11.539 23.53 23.667-.09 10.815-7.738 23.35-23.53 23.395-16.065.045-23.531-14.254-23.531-23.259Zm28.554-8.689s3.122.362 4.66 4.39c1.642-1.085 2.6-1.657 4.081-2.541l.001-.001h.001c.804-.48 1.762-1.052 3.067-1.848-1.041-3.62-7.331-10.091-16.2-10.136-8.914 0-15.023 6.335-16.472 10.136.968.581 2.067 1.263 3.222 1.98h.001l.006.004.005.003.014.008c1.269.788 2.604 1.616 3.902 2.395 1.765-3.982 4.661-4.39 4.661-4.39v26.292s2.082.814 4.525.814c2.308 0 4.526-.814 4.526-.814v-26.292ZM462.78.0005248C446.399-.0899787 439.249 15.0693 439.249 23.8029c0 9.0051 7.467 23.3047 23.531 23.2594 15.793-.0452 23.441-12.58 23.531-23.3951.136-12.1275-9.005-23.7571787-23.531-23.6666752ZM472.464 19.504c-1.539-4.0274-4.661-4.3894-4.661-4.3894v26.2913s-2.217.8145-4.525.8145c-2.444 0-4.525-.8145-4.525-.8145V15.1146s-2.896.4073-4.661 4.3894c-1.307-.784-2.651-1.6179-3.928-2.41l-.002-.0012c-1.154-.7162-2.253-1.3982-3.22-1.9782 1.448-3.8011 7.557-10.13639 16.472-10.13639 8.869.04526 15.159 6.51629 16.2 10.13639-1.306.796-2.264 1.3679-3.068 1.8479-1.481.8843-2.439 1.4562-4.082 2.5415Zm-33.215 253.338c0-8.734 7.15-23.893 23.531-23.803 14.526-.09 23.667 11.539 23.531 23.667-.09 10.815-7.738 23.35-23.531 23.395-16.064.045-23.531-14.254-23.531-23.259Zm28.554-8.689s3.122.362 4.661 4.39c1.642-1.085 2.6-1.657 4.081-2.541l.001-.001c.804-.48 1.762-1.052 3.068-1.848-1.041-3.62-7.331-10.091-16.2-10.136-8.915 0-15.024 6.335-16.472 10.136.967.58 2.066 1.262 3.22 1.978l.002.002c1.277.792 2.621 1.626 3.928 2.41 1.765-3.982 4.661-4.39 4.661-4.39v26.292s2.081.814 4.525.814c2.308 0 4.525-.814 4.525-.814v-26.292ZM211.781 124.52c-16.382-.091-23.531 15.069-23.531 23.802 0 9.005 7.466 23.305 23.531 23.26 15.792-.046 23.44-12.58 23.53-23.395.136-12.128-9.005-23.758-23.53-23.667Zm9.683 19.503c-1.538-4.027-4.66-4.389-4.66-4.389v26.291s-2.218.815-4.526.815c-2.443 0-4.525-.815-4.525-.815v-26.291s-2.896.407-4.661 4.389c-1.307-.784-2.651-1.618-3.928-2.41-1.155-.716-2.254-1.399-3.222-1.979 1.449-3.801 7.558-10.136 16.472-10.136 8.869.045 15.159 6.516 16.2 10.136-1.303.795-2.26 1.366-3.063 1.846l-.004.002h-.001l-.002.001c-1.48.884-2.438 1.456-4.08 2.54ZM188.25 397.361c0-8.734 7.149-23.893 23.531-23.802 14.525-.091 23.666 11.539 23.53 23.666-.09 10.815-7.738 23.35-23.53 23.395-16.065.046-23.531-14.254-23.531-23.259Zm28.554-8.688s3.122.362 4.66 4.389c1.643-1.085 2.601-1.657 4.082-2.541h.001c.804-.48 1.762-1.052 3.067-1.848-1.041-3.62-7.331-10.091-16.2-10.137-8.914 0-15.023 6.335-16.472 10.137.968.58 2.067 1.262 3.222 1.979 1.277.792 2.621 1.626 3.928 2.41 1.765-3.982 4.661-4.389 4.661-4.389v26.291s2.082.814 4.525.814c2.308 0 4.526-.814 4.526-.814v-26.291ZM462.78 124.52c-16.381-.091-23.531 15.069-23.531 23.802 0 9.005 7.467 23.305 23.531 23.26 15.793-.046 23.441-12.58 23.531-23.395.136-12.128-9.005-23.758-23.531-23.667Zm9.684 19.503c-1.539-4.027-4.661-4.389-4.661-4.389v26.291s-2.217.815-4.525.815c-2.444 0-4.525-.815-4.525-.815v-26.291s-2.896.407-4.661 4.389c-1.305-.782-2.647-1.615-3.922-2.406l-.003-.002-.001-.001-.002-.001c-1.155-.716-2.255-1.399-3.222-1.979 1.448-3.801 7.557-10.136 16.472-10.136 8.869.045 15.159 6.516 16.2 10.136-1.306.796-2.264 1.368-3.068 1.848-1.481.884-2.439 1.456-4.082 2.541Zm-33.215 253.338c0-8.734 7.15-23.893 23.531-23.802 14.526-.091 23.667 11.539 23.531 23.666-.09 10.815-7.738 23.35-23.531 23.395-16.064.046-23.531-14.254-23.531-23.259Zm28.554-8.688s3.122.362 4.661 4.389c1.643-1.085 2.601-1.657 4.082-2.541.804-.48 1.762-1.052 3.068-1.848-1.041-3.62-7.331-10.091-16.2-10.137-8.915 0-15.024 6.335-16.472 10.137.967.58 2.067 1.262 3.222 1.979 1.277.792 2.621 1.626 3.928 2.41 1.765-3.982 4.661-4.389 4.661-4.389v26.291s2.081.814 4.525.814c2.308 0 4.525-.814 4.525-.814v-26.291ZM101.968 61.77c-16.3809-.0905-23.5306 15.0688-23.5306 23.8024 0 9.0051 7.4665 23.3046 23.5306 23.2596 15.793-.046 23.441-12.5802 23.531-23.3954.136-12.1275-9.005-23.7571-23.531-23.6666Zm9.684 19.5034c-1.538-4.0274-4.661-4.3894-4.661-4.3894v26.291s-2.217.815-4.525.815c-2.444 0-4.5251-.815-4.5251-.815V76.884s-2.8961.4073-4.661 4.3894c-1.3068-.7841-2.6511-1.6181-3.928-2.4103l-.0015-.0009c-1.1543-.7162-2.2536-1.3982-3.2202-1.9782 1.448-3.8011 7.557-10.1364 16.4718-10.1364 8.869.0453 15.159 6.5163 16.2 10.1364-1.305.7958-2.263 1.3677-3.067 1.8476l-.001.0002v.0001c-1.481.8843-2.439 1.4563-4.082 2.5415ZM78.4374 334.611c0-8.734 7.1497-23.893 23.5306-23.802 14.526-.091 23.667 11.539 23.531 23.666-.09 10.815-7.738 23.35-23.531 23.395-16.0641.046-23.5306-14.254-23.5306-23.259Zm28.5536-8.688s3.123.362 4.661 4.389c1.643-1.085 2.601-1.657 4.082-2.541.804-.48 1.763-1.052 3.068-1.848-1.041-3.62-7.331-10.091-16.2-10.137-8.9148 0-15.0238 6.336-16.4718 10.137.9671.58 2.0669 1.262 3.2219 1.979h.0005l.0034.002.005.004c1.2742.79 2.6152 1.622 3.9189 2.404 1.7649-3.982 4.661-4.389 4.661-4.389v26.291s2.0811.815 4.5251.815c2.308 0 4.525-.815 4.525-.815v-26.291ZM352.968 61.77c-16.381-.0905-23.531 15.0688-23.531 23.8024 0 9.0051 7.466 23.3046 23.531 23.2596 15.793-.046 23.44-12.5802 23.531-23.3954.135-12.1275-9.005-23.7571-23.531-23.6666Zm9.684 19.5034c-1.539-4.0274-4.661-4.3894-4.661-4.3894v26.291s-2.218.815-4.525.815c-2.444 0-4.526-.815-4.526-.815V76.884s-2.896.4073-4.66 4.3894c-1.307-.784-2.651-1.6179-3.928-2.41l-.002-.0011c-1.154-.7162-2.254-1.3982-3.22-1.9783 1.448-3.8011 7.557-10.1364 16.471-10.1364 8.87.0453 15.16 6.5163 16.2 10.1364-1.305.796-2.263 1.368-3.067 1.8479-1.482.8843-2.44 1.4562-4.082 2.5415ZM329.437 334.611c0-8.734 7.15-23.893 23.531-23.802 14.526-.091 23.666 11.539 23.531 23.666-.091 10.815-7.738 23.35-23.531 23.395-16.065.046-23.531-14.254-23.531-23.259Zm28.554-8.688s3.122.362 4.661 4.389c1.642-1.085 2.6-1.657 4.082-2.541.804-.48 1.762-1.052 3.067-1.848-1.04-3.62-7.33-10.091-16.2-10.137-8.914 0-15.023 6.336-16.471 10.137.967.58 2.067 1.263 3.222 1.979 1.277.792 2.621 1.626 3.928 2.41 1.764-3.982 4.66-4.389 4.66-4.389v26.291s2.082.815 4.526.815c2.307 0 4.525-.815 4.525-.815v-26.291ZM101.968 186.289c-16.3809-.09-23.5306 15.069-23.5306 23.803 0 9.005 7.4665 23.304 23.5306 23.259 15.793-.045 23.441-12.58 23.531-23.395.136-12.127-9.005-23.757-23.531-23.667Zm9.684 19.504c-1.538-4.028-4.661-4.39-4.661-4.39v26.292s-2.217.814-4.525.814c-2.444 0-4.5251-.814-4.5251-.814v-26.292s-2.8961.408-4.661 4.39c-1.3064-.784-2.6502-1.618-3.9267-2.41l-.0014-.001h-.0007l-.0035-.002c-1.1533-.716-2.2516-1.397-3.2174-1.977 1.448-3.801 7.557-10.136 16.4718-10.136 8.869.045 15.159 6.516 16.2 10.136-1.304.795-2.261 1.367-3.065 1.847l-.003.001c-1.481.885-2.439 1.457-4.082 2.542ZM78.4374 459.13c0-8.733 7.1497-23.892 23.5306-23.802 14.526-.09 23.667 11.539 23.531 23.667-.09 10.815-7.738 23.35-23.531 23.395-16.0641.045-23.5306-14.255-23.5306-23.26Zm28.5536-8.688s3.123.362 4.661 4.39c1.643-1.086 2.601-1.658 4.082-2.542.804-.48 1.763-1.052 3.068-1.848-1.041-3.62-7.331-10.091-16.2-10.136-8.9148 0-15.0238 6.335-16.4718 10.136.9671.58 2.0669 1.263 3.2219 1.979l.0005.001.0034.002.005.003c1.2742.79 2.6152 1.622 3.9189 2.405 1.7649-3.983 4.661-4.39 4.661-4.39v26.291s2.0811.815 4.5251.815c2.308 0 4.525-.815 4.525-.815v-26.291Zm245.977-264.153c-16.381-.09-23.531 15.069-23.531 23.803 0 9.005 7.466 23.304 23.531 23.259 15.793-.045 23.44-12.58 23.531-23.395.135-12.127-9.005-23.757-23.531-23.667Zm9.684 19.504c-1.539-4.028-4.661-4.39-4.661-4.39v26.292s-2.218.814-4.525.814c-2.444 0-4.526-.814-4.526-.814v-26.292s-2.896.408-4.66 4.39c-1.307-.784-2.651-1.618-3.928-2.41l-.003-.002c-1.154-.716-2.253-1.398-3.219-1.978 1.448-3.801 7.557-10.136 16.471-10.136 8.87.045 15.16 6.516 16.2 10.136-1.305.796-2.263 1.368-3.067 1.848-1.482.885-2.44 1.457-4.082 2.542ZM329.437 459.13c0-8.733 7.15-23.892 23.531-23.802 14.526-.09 23.666 11.539 23.531 23.667-.091 10.815-7.738 23.35-23.531 23.395-16.065.045-23.531-14.255-23.531-23.26Zm28.554-8.688s3.122.362 4.661 4.39c1.642-1.086 2.6-1.658 4.082-2.542.804-.48 1.762-1.052 3.067-1.848-1.04-3.62-7.33-10.091-16.2-10.136-8.914 0-15.023 6.335-16.471 10.136.967.58 2.067 1.263 3.222 1.98 1.277.792 2.621 1.626 3.928 2.41 1.764-3.983 4.66-4.39 4.66-4.39v26.291s2.082.815 4.526.815c2.307 0 4.525-.815 4.525-.815v-26.291ZM227.468 61.77c-16.381-.0905-23.531 15.0688-23.531 23.8024 0 9.0051 7.467 23.3046 23.531 23.2596 15.793-.046 23.44-12.5802 23.531-23.3954.136-12.1275-9.005-23.7571-23.531-23.6666Zm9.684 19.5034c-1.539-4.0274-4.661-4.3894-4.661-4.3894v26.291s-2.217.815-4.525.815c-2.444 0-4.525-.815-4.525-.815V76.884s-2.896.4073-4.661 4.3894c-1.307-.7839-2.651-1.6177-3.927-2.4097l-.001-.0002v-.0004c-1.155-.7165-2.255-1.3988-3.222-1.9791 1.448-3.8011 7.557-10.1364 16.472-10.1364 8.869.0453 15.159 6.5163 16.2 10.1364-1.306.796-2.264 1.3679-3.068 1.8479v.0002c-1.481.8842-2.44 1.4561-4.082 2.5413ZM203.937 334.611c0-8.734 7.15-23.893 23.531-23.802 14.526-.091 23.667 11.539 23.531 23.666-.091 10.815-7.738 23.35-23.531 23.395-16.064.046-23.531-14.254-23.531-23.259Zm28.554-8.688s3.122.362 4.661 4.389c1.642-1.085 2.6-1.657 4.081-2.541h.001c.804-.48 1.762-1.052 3.068-1.848-1.041-3.62-7.331-10.091-16.2-10.137-8.915 0-15.024 6.336-16.472 10.137.967.58 2.067 1.262 3.222 1.979 1.277.792 2.621 1.626 3.928 2.41 1.765-3.982 4.661-4.389 4.661-4.389v26.291s2.081.815 4.525.815c2.308 0 4.525-.815 4.525-.815v-26.291ZM478.468 61.77c-16.381-.0905-23.531 15.0688-23.531 23.8024 0 9.0051 7.466 23.3046 23.531 23.2596 15.792-.046 23.44-12.5802 23.531-23.3954.135-12.1275-9.006-23.7571-23.531-23.6666Zm9.683 19.5034c-1.538-4.0274-4.66-4.3894-4.66-4.3894v26.291s-2.218.815-4.526.815c-2.443 0-4.525-.815-4.525-.815V76.884s-2.896.4073-4.661 4.3894c-1.306-.784-2.65-1.6179-3.927-2.41l-.002-.0011c-1.154-.7162-2.254-1.3982-3.22-1.9783 1.448-3.8011 7.557-10.1364 16.471-10.1364 8.869.0453 15.159 6.5163 16.2 10.1364-1.305.796-2.263 1.368-3.067 1.8479-1.482.8843-2.44 1.4562-4.083 2.5415ZM454.937 334.611c0-8.734 7.15-23.893 23.531-23.802 14.525-.091 23.666 11.539 23.531 23.666-.091 10.815-7.739 23.35-23.531 23.395-16.065.046-23.531-14.254-23.531-23.259Zm28.554-8.688s3.122.362 4.66 4.389c1.643-1.085 2.601-1.657 4.083-2.541.804-.48 1.762-1.052 3.067-1.848-1.041-3.62-7.331-10.091-16.2-10.137-8.914 0-15.023 6.336-16.471 10.137.967.58 2.067 1.263 3.222 1.979 1.277.792 2.621 1.626 3.927 2.41 1.765-3.982 4.661-4.389 4.661-4.389v26.291s2.082.815 4.525.815c2.308 0 4.526-.815 4.526-.815v-26.291ZM227.468 186.289c-16.381-.09-23.531 15.069-23.531 23.803 0 9.005 7.467 23.304 23.531 23.259 15.793-.045 23.44-12.58 23.531-23.395.136-12.127-9.005-23.757-23.531-23.667Zm9.684 19.504c-1.539-4.028-4.661-4.39-4.661-4.39v26.292s-2.217.814-4.525.814c-2.444 0-4.525-.814-4.525-.814v-26.292s-2.896.408-4.661 4.39c-1.307-.784-2.651-1.618-3.928-2.411-1.155-.716-2.255-1.398-3.222-1.979 1.448-3.801 7.557-10.136 16.472-10.136 8.869.045 15.159 6.516 16.2 10.136-1.304.795-2.261 1.366-3.064 1.846l-.004.002-.001.001-.001.001c-1.48.883-2.438 1.455-4.08 2.54ZM203.937 459.13c0-8.733 7.15-23.892 23.531-23.802 14.526-.09 23.667 11.539 23.531 23.667-.091 10.815-7.738 23.35-23.531 23.395-16.064.045-23.531-14.255-23.531-23.26Zm28.554-8.688s3.122.362 4.661 4.39c1.642-1.086 2.6-1.658 4.081-2.542h.001c.804-.48 1.762-1.052 3.068-1.848-1.041-3.62-7.331-10.091-16.2-10.136-8.915 0-15.024 6.335-16.472 10.136.967.58 2.067 1.263 3.222 1.979 1.277.793 2.621 1.626 3.928 2.411 1.765-3.983 4.661-4.39 4.661-4.39v26.291s2.081.815 4.525.815c2.308 0 4.525-.815 4.525-.815v-26.291Zm245.977-264.153c-16.381-.09-23.531 15.069-23.531 23.803 0 9.005 7.466 23.304 23.531 23.259 15.792-.045 23.44-12.58 23.531-23.395.135-12.127-9.006-23.757-23.531-23.667Zm9.683 19.504c-1.538-4.028-4.66-4.39-4.66-4.39v26.292s-2.218.814-4.526.814c-2.443 0-4.525-.814-4.525-.814v-26.292s-2.896.408-4.661 4.39c-1.306-.784-2.651-1.618-3.927-2.41l-.004-.002c-1.153-.716-2.252-1.398-3.218-1.978 1.448-3.801 7.557-10.136 16.471-10.136 8.869.045 15.159 6.516 16.2 10.136-1.305.796-2.263 1.368-3.067 1.848-1.482.885-2.44 1.457-4.083 2.542ZM454.937 459.13c0-8.733 7.15-23.892 23.531-23.802 14.525-.09 23.666 11.539 23.531 23.667-.091 10.815-7.739 23.35-23.531 23.395-16.065.045-23.531-14.255-23.531-23.26Zm28.554-8.688s3.122.362 4.66 4.39c1.643-1.086 2.601-1.658 4.083-2.542.804-.48 1.762-1.052 3.067-1.848-1.041-3.62-7.331-10.091-16.2-10.136-8.914 0-15.023 6.335-16.471 10.136.967.58 2.067 1.263 3.222 1.98 1.277.792 2.621 1.626 3.927 2.41 1.765-3.983 4.661-4.39 4.661-4.39v26.291s2.082.815 4.525.815c2.308 0 4.526-.815 4.526-.815v-26.291Z" clip-rule="evenodd"/>
</svg>