<svg xmlns="http://www.w3.org/2000/svg">
  <symbol viewBox="0 0 132 132" id="monitor">
    <path id="Union" fill-rule="evenodd" clip-rule="evenodd" d="M13.75 8.25H118.25C119.709 8.25 121.108 8.82946 122.139 9.86091C123.171 10.8924 123.75 12.2913 123.75 13.75V74.25H8.25V13.75C8.25 12.2913 8.82946 10.8924 9.86091 9.86091C10.8924 8.82946 12.2913 8.25 13.75 8.25ZM99 19.25H74.25C73.5207 19.25 72.8212 19.5397 72.3055 20.0555C71.7897 20.5712 71.5 21.2707 71.5 22C71.5 22.7293 71.7897 23.4288 72.3055 23.9445C72.8212 24.4603 73.5207 24.75 74.25 24.75H99C99.7293 24.75 100.429 24.4603 100.945 23.9445C101.46 23.4288 101.75 22.7293 101.75 22C101.75 21.2707 101.46 20.5712 100.945 20.0555C100.429 19.5397 99.7293 19.25 99 19.25ZM54.2025 43.175C55.3088 43.7108 56.5208 43.9927 57.75 44C59.3817 44 60.9767 43.5161 62.3335 42.6096C63.6902 41.7031 64.7476 40.4146 65.372 38.9071C65.9964 37.3996 66.1598 35.7408 65.8415 34.1405C65.5232 32.5402 64.7374 31.0702 63.5836 29.9164C62.4298 28.7626 60.9598 27.9768 59.3595 27.6585C57.7592 27.3402 56.1004 27.5036 54.5929 28.128C53.0854 28.7524 51.7969 29.8098 50.8904 31.1665C49.9839 32.5233 49.5 34.1183 49.5 35.75C49.4987 36.9771 49.7712 38.189 50.2975 39.2975L47.41 42.2125C46.5205 41.0599 45.379 40.126 44.073 39.4826C42.7669 38.8391 41.331 38.503 39.875 38.5C38.7281 38.511 37.5922 38.7251 36.52 39.1325L33.3025 30.6075C34.6589 29.2622 35.5064 27.4878 35.7002 25.5872C35.8941 23.6866 35.4224 21.7777 34.3655 20.1862C33.3087 18.5947 31.7323 17.4193 29.9053 16.8606C28.0784 16.302 26.1142 16.3947 24.348 17.1229C22.5818 17.8511 21.1231 19.1698 20.2209 20.8537C19.3186 22.5377 19.0287 24.4826 19.4008 26.3565C19.7728 28.2303 20.7836 29.917 22.2607 31.1286C23.7378 32.3402 25.5896 33.0017 27.5 33H28.325L31.955 42.625C31.0982 43.8658 30.5448 45.2905 30.3396 46.7844C30.1344 48.2783 30.283 49.7994 30.7735 51.2253C31.264 52.6512 32.0827 53.9419 33.1635 54.9933C34.2444 56.0448 35.5571 56.8276 36.996 57.2786C38.4348 57.7297 39.9595 57.8364 41.4471 57.5901C42.9348 57.3438 44.3437 56.7514 45.5605 55.8607C46.7772 54.97 47.7676 53.8059 48.4519 52.4622C49.1362 51.1185 49.4952 49.6329 49.5 48.125V47.905L54.2025 43.175ZM74.25 66H107.25C107.979 66 108.679 65.7103 109.195 65.1945C109.71 64.6788 110 63.9793 110 63.25C110 62.5207 109.71 61.8212 109.195 61.3055C108.679 60.7897 107.979 60.5 107.25 60.5H74.25C73.5207 60.5 72.8212 60.7897 72.3055 61.3055C71.7897 61.8212 71.5 62.5207 71.5 63.25C71.5 63.9793 71.7897 64.6788 72.3055 65.1945C72.8212 65.7103 73.5207 66 74.25 66ZM72.3055 47.5555C71.7897 48.0712 71.5 48.7707 71.5 49.5C71.5 50.2293 71.7897 50.9288 72.3055 51.4445C72.8212 51.9603 73.5207 52.25 74.25 52.25H104.5C105.229 52.25 105.929 51.9603 106.445 51.4445C106.96 50.9288 107.25 50.2293 107.25 49.5C107.25 48.7707 106.96 48.0712 106.445 47.5555C105.929 47.0397 105.229 46.75 104.5 46.75H74.25C73.5207 46.75 72.8212 47.0397 72.3055 47.5555ZM74.25 38.5H110C110.729 38.5 111.429 38.2103 111.945 37.6945C112.46 37.1788 112.75 36.4793 112.75 35.75C112.75 35.0207 112.46 34.3212 111.945 33.8055C111.429 33.2897 110.729 33 110 33H74.25C73.5207 33 72.8212 33.2897 72.3055 33.8055C71.7897 34.3212 71.5 35.0207 71.5 35.75C71.5 36.4793 71.7897 37.1788 72.3055 37.6945C72.8212 38.2103 73.5207 38.5 74.25 38.5ZM27.5 27.5C29.0188 27.5 30.25 26.2687 30.25 24.75C30.25 23.2312 29.0188 22 27.5 22C25.9812 22 24.75 23.2312 24.75 24.75C24.75 26.2687 25.9812 27.5 27.5 27.5ZM43.9999 48.125C43.9999 50.4032 42.1531 52.25 39.8749 52.25C37.5968 52.25 35.7499 50.4032 35.7499 48.125C35.7499 45.8469 37.5968 44 39.8749 44C42.1531 44 43.9999 45.8469 43.9999 48.125ZM56.1826 99L53.8176 107.25H78.1826L75.8176 99H56.1826ZM27.4999 123.75H107.25C107.25 120.833 106.091 118.035 104.028 115.972C101.965 113.909 99.1673 112.75 96.2499 112.75H38.4999C35.5826 112.75 32.7847 113.909 30.7218 115.972C28.6589 118.035 27.4999 120.833 27.4999 123.75ZM60.5001 35.75C60.5001 37.2688 59.2689 38.5 57.7501 38.5C56.2313 38.5 55.0001 37.2688 55.0001 35.75C55.0001 34.2312 56.2313 33 57.7501 33C59.2689 33 60.5001 34.2312 60.5001 35.75ZM8.25 88C8.25 89.4587 8.82946 90.8576 9.86091 91.8891C10.8924 92.9205 12.2913 93.5 13.75 93.5H118.25C119.709 93.5 121.108 92.9205 122.139 91.8891C123.171 90.8576 123.75 89.4587 123.75 88V79.75H8.25V88Z" fill="#3A6A91"></path>
  </symbol>
  <symbol viewBox="0 0 132 132" id="tendance">
    <path id="Union" fill-rule="evenodd" clip-rule="evenodd" d="M25.7688 69.9971C25.4358 70.0817 25.0935 70.1247 24.7499 70.125C23.736 70.1375 22.753 69.7761 21.9886 69.1099C21.2243 68.4436 20.7321 67.5191 20.606 66.513C20.48 65.5068 20.729 64.4895 21.3054 63.6553C21.8819 62.8211 22.7454 62.2285 23.7311 61.9905C37.7943 58.4158 51.3262 53.007 63.9787 45.903C77.9441 37.9919 90.6814 28.0867 101.788 16.5H90.7499C89.6559 16.5 88.6067 16.0654 87.8331 15.2918C87.0595 14.5182 86.6249 13.469 86.6249 12.375C86.6249 11.281 87.0595 10.2318 87.8331 9.45818C88.6067 8.6846 89.6559 8.25 90.7499 8.25H111.375C112.469 8.25 113.518 8.6846 114.292 9.45818C115.065 10.2318 115.5 11.281 115.5 12.375V33C115.5 34.094 115.065 35.1432 114.292 35.9168C113.518 36.6904 112.469 37.125 111.375 37.125C110.281 37.125 109.232 36.6904 108.458 35.9168C107.685 35.1432 107.25 34.094 107.25 33V22.7824C95.6916 34.7089 82.4805 44.9138 68.0212 53.0846C54.7392 60.5496 40.5333 66.2358 25.7688 69.9971ZM115.5 53.625H99C94.4436 53.625 90.75 57.3186 90.75 61.875V115.5C90.75 120.056 94.4436 123.75 99 123.75H115.5C120.056 123.75 123.75 120.056 123.75 115.5V61.875C123.75 57.3186 120.056 53.625 115.5 53.625ZM57.75 74.25H74.25C78.8064 74.25 82.5 77.9436 82.5 82.5V115.5C82.5 120.056 78.8064 123.75 74.25 123.75H57.75C53.1936 123.75 49.5 120.056 49.5 115.5V82.5C49.5 77.9436 53.1936 74.25 57.75 74.25ZM16.5 86.625H33C37.5564 86.625 41.25 90.3186 41.25 94.875V115.5C41.25 120.056 37.5564 123.75 33 123.75H16.5C11.9437 123.75 8.25 120.056 8.25 115.5V94.875C8.25 90.3186 11.9437 86.625 16.5 86.625Z" fill="#3A6A91"></path>
  </symbol>
  <symbol viewBox="0 0 132 132" id="analyser">
    <path id="Vector" fill-rule="evenodd" clip-rule="evenodd" d="M24.792 120.98H104.357C105.067 120.98 105.646 120.401 105.646 119.691V114.647C105.646 111.164 102.08 108.315 97.7205 108.315H83.5733V93.5483H101.471C101.059 92.4498 100.961 91.2579 101.18 90.114L98.4429 87.4582C93.8004 90.5288 88.3557 92.177 82.7192 92.177C72.1504 92.177 62.9225 86.4306 57.989 77.8924H11.8973V20.0808C11.8973 19.3718 12.4774 18.7919 13.1863 18.7919H115.964C116.673 18.7919 117.253 19.372 117.253 20.0808V77.8924H109.277L111.479 80.0296C113.318 79.8066 115.238 80.3844 116.667 81.7709L123.858 88.7481C124.6 87.4142 125.025 85.8812 125.025 84.2539V20.3138C125.025 15.2019 120.842 11.0197 115.73 11.0197H13.4194C8.30749 11.0197 4.125 15.2019 4.125 20.3138V84.2539C4.125 89.3658 8.30749 93.5483 13.4191 93.5483H45.5761V108.315H31.4289C27.0695 108.315 23.503 111.164 23.503 114.647V119.691C23.503 120.401 24.082 120.98 24.792 120.98ZM82.7192 39.2166C96.2046 39.2166 107.137 50.1489 107.137 63.6346C107.137 68.7516 105.562 73.5005 102.871 77.4244L110.556 84.8811L110.656 84.778C111.506 83.902 112.919 83.8806 113.795 84.7309L127.204 97.7426C128.08 98.5929 128.102 100.005 127.251 100.882L122.41 105.871C121.56 106.747 120.147 106.768 119.271 105.918L105.862 92.9063C104.985 92.0563 104.964 90.6435 105.815 89.7675L106.266 89.3021L98.7734 82.0316C94.4811 85.7804 88.8657 88.0522 82.7192 88.0522C69.2335 88.0522 58.3015 77.12 58.3015 63.6346C58.3015 50.1489 69.2335 39.2166 82.7192 39.2166ZM82.7192 46.101C92.4026 46.101 100.252 53.9511 100.252 63.6343C100.252 73.3177 92.4026 81.1676 82.7192 81.1676C73.0357 81.1676 65.1858 73.3177 65.1858 63.6343C65.1858 53.9509 73.0357 46.101 82.7192 46.101ZM59.8976 28.7456L61.396 24.8531H67.7534L69.2518 28.7456C71.3256 29.239 73.3064 30.0614 75.1217 31.1791L78.936 29.485L83.4315 33.9807L82.9367 35.0945C82.864 35.0939 82.7919 35.0916 82.7189 35.0916C78.3443 35.0916 74.2002 36.0772 70.4947 37.8368C68.746 36.8494 66.7263 36.285 64.5746 36.285C57.9153 36.285 52.5177 41.6826 52.5177 48.3419C52.5177 51.2286 53.5322 53.8777 55.2237 55.953C54.542 58.3971 54.1765 60.9729 54.1765 63.6343C54.1765 64.3085 54.2017 64.977 54.2476 65.6396C54.1736 65.5952 54.0996 65.5506 54.0262 65.5053L50.2131 67.1988L45.7176 62.7034L47.4117 58.889C46.2941 57.0738 45.4717 55.093 44.9782 53.0191L41.0858 51.5207V45.1631L44.9775 43.6652C45.4712 41.5908 46.2933 39.6093 47.4115 37.7938L45.7179 33.9805L50.2136 29.485L54.028 31.1791C55.843 30.0614 57.8237 29.2393 59.8976 28.7456Z" fill="#3A6A91"></path>
  </symbol>
  <symbol viewBox="0 0 132 132" id="correctives">
    <path id="Union" fill-rule="evenodd" clip-rule="evenodd" d="M87.9991 21.9991C89.6491 21.9991 90.75 20.8982 90.75 19.2482V13.7491C90.75 12.0991 89.6491 10.9982 87.9991 10.9982H76.7237C75.6254 6.33596 71.2246 2.75084 66 2.75084C60.7754 2.75084 56.6491 6.33596 55.2737 11.0008H44.0009C42.3509 11.0008 41.25 12.1017 41.25 13.7517V19.2508C41.25 20.9008 42.3509 21.9991 44.0009 21.9991H87.9991ZM71.4992 104.499C71.4877 100.523 72.2623 96.5844 73.7786 92.9091C75.2948 89.2337 77.5228 85.8944 80.3342 83.0832C83.1457 80.272 86.4852 78.0443 90.1607 76.5284C93.8362 75.0125 97.7751 74.2382 101.751 74.25C105.526 74.2618 109.262 75.0087 112.752 76.4491V24.75C112.752 20.0746 109.177 16.5 104.502 16.5H96.2492V19.2509C96.2492 23.9263 92.6746 27.5009 87.9992 27.5009H44.0009C39.3255 27.5009 35.7509 23.9263 35.7509 19.2509V16.5H27.5009C22.8255 16.5 19.2509 20.064 19.2509 24.75V120.999C19.2509 125.675 22.8255 129.249 27.5009 129.249H84.4246C76.7237 123.75 71.4992 114.676 71.4992 104.499ZM41.2501 41.25H63.2492C64.8992 41.25 66.0001 42.3509 66.0001 44.0009C66.0001 45.6509 64.8992 46.7518 63.2492 46.7518H41.2501C39.6001 46.7518 38.4992 45.6509 38.4992 44.0009C38.4992 42.3509 39.6001 41.25 41.2501 41.25ZM90.7501 54.9991C92.4001 54.9991 93.5009 56.1 93.5009 57.75C93.5009 59.4 92.4001 60.5009 90.7501 60.5009H41.2501C39.6001 60.5009 38.4992 59.4 38.4992 57.75C38.4992 56.1 39.6001 54.9991 41.2501 54.9991H90.7501ZM38.4992 71.4991C38.4992 69.8491 39.6001 68.7482 41.2501 68.7482H71.4992C73.1492 68.7482 74.2501 69.8491 74.2501 71.4991C74.2501 73.1491 73.1492 74.25 71.4992 74.25H41.2501C39.6001 74.25 38.4992 73.1491 38.4992 71.4991ZM88.0006 83.9202C92.0707 81.2006 96.8559 79.7491 101.751 79.7491C105.005 79.7355 108.23 80.3663 111.238 81.6053C114.247 82.8443 116.981 84.6668 119.282 86.9678C121.583 89.2688 123.406 92.0026 124.645 95.0116C125.884 98.0205 126.515 101.245 126.501 104.499C126.501 109.394 125.049 114.179 122.33 118.249C119.61 122.32 115.745 125.492 111.222 127.365C106.7 129.238 101.724 129.729 96.9225 128.774C92.1214 127.819 87.7114 125.461 84.2501 122C80.7887 118.539 78.4315 114.129 77.4765 109.328C76.5215 104.527 77.0117 99.5501 78.8849 95.0277C80.7582 90.5052 83.9305 86.6398 88.0006 83.9202ZM104.214 113.85L112.464 97.35C113.026 96.2491 112.464 94.5991 111.089 93.5008C109.713 92.6772 108.063 93.2263 107.514 94.6017L100.914 107.802L95.415 102.303C95.163 102.046 94.8628 101.842 94.5316 101.703C94.2005 101.563 93.8449 101.49 93.4855 101.489C93.1261 101.487 92.77 101.557 92.4376 101.694C92.1053 101.83 91.8033 102.032 91.5492 102.286C91.295 102.54 91.0937 102.842 90.9569 103.174C90.8201 103.507 90.7504 103.863 90.752 104.222C90.7535 104.582 90.8263 104.937 90.9659 105.268C91.1056 105.6 91.3095 105.9 91.5658 106.152L99.8158 114.402C100.058 114.67 100.355 114.883 100.688 115.025C101.02 115.167 101.379 115.236 101.74 115.225H102.29C102.713 115.221 103.124 115.086 103.468 114.84C103.812 114.594 104.073 114.249 104.214 113.85Z" fill="#3A6A91"></path>
  </symbol>
  <symbol viewBox="0 0 132 132" id="limitations">
    <path id="Union" fill-rule="evenodd" clip-rule="evenodd" d="M85.22 34.52V59.62C71.02 64.14 60.7 77.44 60.7 93.14C60.7 100.06 62.74 106.52 66.22 111.96C63.26 113 60.1 113.6 56.78 113.6C47.4 113.6 38.64 108.96 33.32 101.22C33.26 101.14 33.2 101.06 33.14 101L6.44004 71.88C5.44004 70.76 4.92004 69.34 4.98004 67.84C5.04004 66.34 5.70004 64.96 6.80004 63.94C7.84004 62.98 9.18004 62.46 10.58 62.46H10.84C12.34 62.52 13.72 63.18 14.74 64.28L24.84 75.32C25.4 75.94 26.28 76.14 27.04 75.84C27.82 75.54 28.32 74.8 28.32 73.98V23.24C28.32 20.14 30.84 17.62 33.94 17.62C37.04 17.62 39.56 20.14 39.56 23.24V49.58C39.56 50.68 40.46 51.58 41.56 51.58C42.66 51.58 43.56 50.68 43.56 49.58V23.26V13.34C43.56 10.24 46.06 7.71997 49.16 7.71997C52.26 7.71997 54.78 10.24 54.78 13.34V23.24V49.56C54.78 50.66 55.68 51.56 56.78 51.56C57.88 51.56 58.78 50.66 58.78 49.56V23.24C58.78 20.14 61.28 17.62 64.38 17.62C67.48 17.62 70 20.14 70 23.24V34.52V49.56C70 50.66 70.9 51.56 72 51.56C73.1 51.56 74 50.66 74 49.56V34.52C74 31.42 76.54 28.92 79.62 28.92C82.7 28.92 85.22 31.42 85.22 34.52ZM95.8399 61.98C78.6399 61.98 64.6799 75.92 64.6799 93.14C64.6799 110.34 78.6199 124.3 95.8399 124.3C113.04 124.3 127 110.36 127 93.14C127 75.92 113.06 61.98 95.8399 61.98ZM95.8399 119.14C92.5399 119.14 89.8399 116.44 89.8399 113.14C89.8399 109.84 92.5399 107.14 95.8399 107.14C99.1399 107.14 101.84 109.84 101.84 113.14C101.84 116.44 99.1599 119.14 95.8399 119.14ZM101.84 99.3C101.84 102.44 99.1599 105.14 95.8399 105.14C92.5399 105.14 89.8399 102.44 89.8399 99.14L87.8399 75.28C87.8399 70.7 91.4199 67.12 95.8399 67.12C100.26 67.12 103.84 70.7 103.84 75.12L101.84 99.3ZM91.8401 75.12C91.8401 72.92 93.6401 71.12 95.8401 71.12C98.0601 71.12 99.8401 72.9 99.8401 74.96L97.8401 99.14C97.8401 100.24 96.9401 101.14 95.8401 101.14C94.7401 101.14 93.8401 100.24 93.8401 98.98L91.8401 75.12ZM97.8401 113.14C97.8401 114.245 96.9447 115.14 95.8401 115.14C94.7355 115.14 93.8401 114.245 93.8401 113.14C93.8401 112.035 94.7355 111.14 95.8401 111.14C96.9447 111.14 97.8401 112.035 97.8401 113.14Z" fill="#3A6A91"></path>
  </symbol>
</svg>